# xmcd
#
# Track frame offsets:
#	150
#	26023
#	48871
#	68416
#	91139
#	109186
#	128061
#	151150
#	169324
#	190361
#
# Disc length: 2782 seconds
#
# Revision: 3751532445
# Processed by: cddbd v1.5.2PL0 Copyright (c) Steve Scherf et al.
# Submitted via: EZCDAudioConverter 8.0.2.1
#
DISCID=780adc0a
DTITLE=Various Artist - Ngày Mai Em Đi
DYEAR=1995
DGENRE=Miscellaneous
TTITLE0=Phương Hồng Quế - Tóc em chưa úa nắng hè
TTITLE1=Hoàng Liêm - Bài không tên số 8
TTITLE2=Lệ Thủy - Ngày mai em đi
TTITLE3=Như Mai - Tình ngàn thu
TTITLE4=Thiên Trang - Về đâu em hỡi
TTITLE5=Hoàng Liêm - Quên đi tình yêu cũ
TTITLE6=Lan Ngọc - lệ đá
TTITLE7=Như Mai - Trở về
TTITLE8=Thiên Trang - Đêm nao trăng sáng
TTITLE9=Lệ Thủy - Đêm thấy ta là thác đổ
EXTD=
EXTT0=
EXTT1=
EXTT2=
EXTT3=
EXTT4=
EXTT5=
EXTT6=
EXTT7=
EXTT8=
EXTT9=
PLAYORDER=
